<svg id="Layer_1" enable-background="new 0 0 512 512" viewBox="0 0 512 512" xmlns="http://www.w3.org/2000/svg" xmlns:xlink="http://www.w3.org/1999/xlink"><linearGradient id="SVGID_1_" gradientUnits="userSpaceOnUse" x1="44.819" x2="467.181" y1="256" y2="256"><stop offset="0" stop-color="#4d62ff"/><stop offset=".193" stop-color="#466aff"/><stop offset=".492" stop-color="#3480ff"/><stop offset=".8579" stop-color="#17a3ff"/><stop offset="1" stop-color="#0ab3ff"/></linearGradient><path clip-rule="evenodd" d="m264.25 156.74 137.23-49.38c2.3-.82 4.65-.51 6.63.88 2.01 1.42 3.09 3.52 3.09 5.95v24.66l-146.95 35.55zm-16.5 0-137.23-49.38c-2.3-.82-4.62-.51-6.63.88-1.98 1.42-3.09 3.52-3.09 5.95v24.66l146.95 35.55zm-160.75 25.4 165.37 40.02c2.24.57 4.62.62 7.03.06l165.6-40.08c7.74-1.87 12.5-9.67 10.63-17.4-1.87-7.74-9.67-12.5-17.4-10.63l-162.23 39.26-162.23-39.26c-7.74-1.87-15.53 2.89-17.4 10.63s2.89 15.53 10.63 17.4zm231.39-104.03-60.66 21.46c-1.16.4-2.3.4-3.43 0l-60.66-21.46v34.19c41.64 13.04 83.23 12.95 124.75 0zm-169.62-33.19v41.02c0 4.56 3.69 8.25 8.25 8.25s8.25-3.69 8.25-8.25v-35.35l90.73 32.09 116.45-41.16-116.45-41.02-116.42 41.02 9.18 3.26v.14zm87.59 281.62c-2.21-1.9-4.54-3.66-7-5.22-11.28 11.05-26.73 17.86-43.74 17.86-17.04 0-32.46-6.8-43.74-17.86-2.47 1.56-4.82 3.32-7 5.22 24.92 8.25 42.89 31.72 42.89 59.39 0 11.54-3.15 22.37-8.62 31.66 6.29 4.17 11.82 9.21 16.47 14.91 4.65-5.7 10.18-10.74 16.47-14.91-5.47-9.3-8.62-20.13-8.62-31.66 0-27.67 17.97-51.14 42.89-59.39zm140.76 0c-2.18-1.9-4.54-3.66-7-5.22-11.28 11.05-26.7 17.86-43.71 17.86-17.04 0-32.46-6.8-43.74-17.86-2.47 1.56-4.82 3.29-7 5.22 24.89 8.25 42.86 31.72 42.86 59.39 0 11.54-3.12 22.37-8.59 31.66 6.26 4.17 11.82 9.21 16.47 14.91 4.65-5.7 10.18-10.74 16.44-14.91-5.47-9.3-8.59-20.13-8.59-31.66 0-27.67 17.98-51.14 42.86-59.39zm63.42 104.09c-11.28 11.03-26.73 17.83-43.74 17.83-17.04 0-32.46-6.8-43.74-17.83-15.99 10.06-26.65 27.89-26.65 48.08 0-20.18-10.69-38.01-26.67-48.08-11.28 11.03-26.7 17.83-43.74 17.83-17.01 0-32.46-6.8-43.74-17.83-15.99 10.06-26.65 27.89-26.65 48.08 0-20.18-10.69-38.01-26.67-48.08-11.28 11.03-26.7 17.83-43.71 17.83-17.04 0-32.46-6.8-43.74-17.83-15.99 10.06-26.67 27.89-26.67 48.08v24.86c0 4.37 3.57 7.94 7.94 7.94h124.92c4.37 0 7.94-3.57 7.94-7.94 0 4.37 3.57 7.94 7.91 7.94h124.95c4.37 0 7.94-3.57 7.94-7.94 0 4.37 3.54 7.94 7.91 7.94h124.95c4.34 0 7.91-3.57 7.91-7.94v-24.87c-.01-20.18-10.67-38.01-26.65-48.07zm-254.92-107.95c25.37 0 46.06-20.69 46.06-46.06s-20.69-46.03-46.06-46.03-46.06 20.66-46.06 46.03 20.69 46.06 46.06 46.06zm-70.39 109.31c25.34 0 46.03-20.69 46.03-46.06s-20.69-46.06-46.03-46.06c-25.37 0-46.06 20.69-46.06 46.06s20.69 46.06 46.06 46.06zm140.77 0c25.37 0 46.06-20.69 46.06-46.06s-20.69-46.06-46.06-46.06-46.06 20.69-46.06 46.06 20.69 46.06 46.06 46.06zm140.8 0c25.37 0 46.06-20.69 46.06-46.06s-20.69-46.06-46.06-46.06-46.06 20.69-46.06 46.06c-.01 25.37 20.69 46.06 46.06 46.06zm-70.39-109.31c25.34 0 46.03-20.69 46.03-46.06s-20.69-46.03-46.03-46.03c-25.37 0-46.06 20.66-46.06 46.03s20.69 46.06 46.06 46.06z" fill="url(#SVGID_1_)" fill-rule="evenodd"/></svg>