<svg id="Layer_1" enable-background="new 0 0 512 512" height="512" viewBox="0 0 512 512" width="512" xmlns="http://www.w3.org/2000/svg"><g clip-rule="evenodd" fill-rule="evenodd"><path d="m335.412 390.918c0 29 23.599 52.598 52.598 52.598 29 0 52.613-23.594 52.613-52.598 0-29.007-23.606-52.612-52.613-52.612-29.005-.001-52.598 23.609-52.598 52.612zm112.852-289.346-23.512-15.403c-1.745-1.143-3.99-1.136-5.734.006l-23.504 15.389 7.37-27.115c.544-2.003-.15-4.143-1.768-5.444l-21.904-17.609 28.065-1.364c2.075-.101 3.901-1.422 4.638-3.366l9.974-26.273 9.974 26.273c.738 1.945 2.555 3.26 4.631 3.361l28.056 1.373-21.887 17.599c-1.621 1.304-2.329 3.437-1.782 5.447zm-80.477 204.591c.96-.228 1.741-.922 2.095-1.841l5.964-15.488h24.328l5.964 15.488c.354.918 1.138 1.614 2.096 1.841 8.975 2.134 17.527 5.695 25.384 10.528.843.518 1.888.59 2.792.188l15.187-6.745 17.195 17.194-6.728 15.176c-.401.904-.348 1.95.172 2.795 4.837 7.861 8.391 16.413 10.528 25.393.227.956.924 1.749 1.841 2.102l15.484 5.959v24.327l-15.483 5.964c-.919.354-1.614 1.138-1.842 2.098-2.136 8.977-5.69 17.531-10.528 25.389-.515.836-.587 1.887-.188 2.785l6.746 15.177-17.196 17.209-15.179-6.747c-.899-.399-1.949-.323-2.785.192-7.861 4.84-16.418 8.387-25.398 10.524-.962.229-1.743.922-2.098 1.842l-5.964 15.483h-24.327l-5.964-15.493c-.354-.918-1.138-1.613-2.097-1.841-8.976-2.136-17.538-5.669-25.39-10.518-.837-.517-1.885-.589-2.784-.189l-15.178 6.746-17.207-17.207 6.747-15.178c.401-.902.328-1.946-.189-2.787-4.834-7.859-8.396-16.412-10.528-25.389-.228-.961-.917-1.749-1.839-2.104l-15.486-5.953v-24.33l15.484-5.959c.924-.355 1.612-1.142 1.842-2.104 2.14-8.977 5.691-17.522 10.527-25.381.52-.844.591-1.894.188-2.8l-6.747-15.179 17.209-17.196 15.177 6.746c.897.399 1.953.327 2.788-.187 7.856-4.839 16.411-8.397 25.387-10.53zm32.013-157.886v133.578l3.398 1.149c.844.285 1.515.918 1.836 1.752l6.125 15.917 2.399.684c6.861 1.956 13.476 4.69 19.706 8.167l2.18 1.216 8.527-3.779v-158.684zm-142.131 288.059h-44.167v-193.323h44.167zm-186.308 0h-44.167v-90.247h44.167z" fill="#9bc9ff"/><path d="m388.01 432.517c-22.941 0-41.599-18.658-41.599-41.6 0-22.941 18.658-41.609 41.599-41.609s41.609 18.667 41.609 41.609-18.667 41.6-41.609 41.6zm0-99.211c-31.757 0-57.598 25.841-57.598 57.612 0 31.762 25.841 57.598 57.598 57.598 31.762 0 57.612-25.836 57.612-57.598.001-31.771-25.85-57.612-57.612-57.612zm97.08 66.343v-17.463l-12.28-4.726c-2.457-.951-4.297-3.055-4.909-5.611-2.01-8.463-5.347-16.512-9.922-23.93-1.375-2.25-1.568-5.031-.485-7.441l5.338-12.04-12.341-12.342-12.049 5.352c-2.41 1.068-5.187.88-7.441-.499-7.418-4.57-15.467-7.912-23.92-9.922-2.556-.607-4.655-2.447-5.606-4.909l-4.73-12.285h-17.463l-4.73 12.285c-.937 2.462-3.041 4.302-5.606 4.909-8.454 2.01-16.502 5.352-23.92 9.922-2.241 1.379-5.032 1.568-7.442.499l-12.04-5.352-12.351 12.342 5.352 12.04c1.068 2.419.88 5.201-.499 7.451-4.57 7.418-7.903 15.458-9.922 23.921-.607 2.556-2.438 4.66-4.909 5.611l-12.28 4.726v17.463l12.28 4.721c2.462.951 4.302 3.05 4.909 5.615 2.01 8.454 5.352 16.503 9.922 23.925 1.379 2.25 1.567 5.027.499 7.437l-5.352 12.04 12.351 12.351 12.04-5.352c2.41-1.068 5.201-.89 7.442.504 7.418 4.57 15.467 7.898 23.92 9.908 2.565.612 4.669 2.452 5.606 4.909l4.73 12.29h17.463l4.73-12.28c.951-2.466 3.05-4.297 5.606-4.909 8.463-2.01 16.512-5.347 23.934-9.917 2.24-1.379 5.027-1.572 7.437-.504l12.04 5.352 12.341-12.351-5.352-12.04c-1.068-2.41-.875-5.196.499-7.437 4.575-7.423 7.912-15.471 9.922-23.925.612-2.565 2.453-4.664 4.909-5.606zm-139.267-199.007v101.688c-1.864.88-3.69 1.822-5.493 2.829l-13.321-5.921c-3.017-1.336-6.557-.678-8.901 1.662l-6.458 6.448v-106.706zm93.149-47.365v150.432l-3.271 1.45c-6.58-3.671-13.542-6.547-20.771-8.609l-5.229-13.589c-.871-2.259-2.688-3.944-4.9-4.693v-124.991zm57 215.952-13.584-5.229c-2.057-7.23-4.947-14.191-8.618-20.781l5.912-13.297c1.351-3.031.692-6.576-1.652-8.91l-20.108-20.112c-.852-.852-1.859-1.469-2.951-1.859v-153.766c0-4.419-3.582-8.002-8.002-8.002h-50.171c-4.42 0-7.997 3.582-7.997 8.002v132.56h-15.01c-3.309 0-6.279 2.033-7.461 5.126l-4.509 11.706v-102.022c0-4.419-3.582-8.002-8.002-8.002h-50.171c-4.415 0-7.997 3.582-7.997 8.002v165.122c-.739 2.062-1.412 4.133-2.01 6.232l-13.584 5.229c-3.088 1.191-5.126 4.161-5.126 7.47v28.439c0 3.314 2.038 6.279 5.126 7.46l13.584 5.229c.598 2.113 1.271 4.18 2.01 6.241v15.269c0 2.692 1.337 5.069 3.38 6.524l-2.692 6.058c-1.337 3.017-.687 6.556 1.652 8.901l20.117 20.108c2.344 2.354 5.884 2.999 8.901 1.662l13.321-5.912c6.58 3.662 13.532 6.552 20.771 8.614l5.229 13.579c1.182 3.088 4.151 5.13 7.461 5.13h28.439c3.309 0 6.279-2.043 7.47-5.13l5.229-13.579c7.23-2.062 14.191-4.942 20.771-8.614l13.311 5.912c3.027 1.337 6.571.692 8.91-1.662l20.108-20.108c2.344-2.344 3.003-5.884 1.652-8.901l-5.912-13.321c3.671-6.58 6.552-13.532 8.609-20.771l13.594-5.229c3.087-1.181 5.116-4.147 5.116-7.46v-28.439c0-3.308-2.028-6.279-5.116-7.469zm-88.452-314.203c4.062-.198 7.62-2.787 9.07-6.585l5.3-13.961 5.3 13.961c1.44 3.803 4.999 6.387 9.061 6.58l14.911.73-11.631 9.352c-3.182 2.551-4.533 6.731-3.474 10.657l3.921 14.408-12.487-8.181c-3.412-2.221-7.799-2.221-11.212.005l-12.487 8.176 3.916-14.408c1.073-3.926-.287-8.11-3.46-10.652l-11.64-9.357zm-36.779 3.671 20.541 16.512-6.924 25.431c-1.115 4.137.391 8.439 3.865 10.958 1.807 1.308 3.907 1.972 6.011 1.972 1.939 0 3.888-.56 5.611-1.69l22.047-14.436 22.052 14.436c3.577 2.349 8.138 2.236 11.607-.282 3.474-2.518 4.98-6.816 3.86-10.958l-6.919-25.431 20.55-16.512c3.342-2.683 4.641-7.055 3.323-11.132-1.332-4.076-4.952-6.848-9.23-7.056l-26.335-1.28-9.348-24.641c-1.521-4.005-5.267-6.589-9.56-6.589-4.288 0-8.049 2.584-9.569 6.589l-9.353 24.641-26.316 1.28c-4.293.207-7.912 2.98-9.23 7.056-1.334 4.076-.025 8.449 3.317 11.132zm-351.83 244.88c-3.309 0-6.401-2.066-7.55-5.371-1.459-4.17.753-8.731 4.919-10.181 120.491-41.962 226.514-102.972 315.431-181.45l-17.58.951c-4.41.235-8.18-3.14-8.421-7.55-.24-4.415 3.14-8.185 7.55-8.425l40.131-2.174c2.391-.132 4.721.819 6.34 2.593 1.61 1.77 2.349 4.17 2.01 6.547l-5.789 39.759c-.584 3.982-4.001 6.848-7.912 6.848-.377 0-.767-.028-1.158-.085-4.382-.635-7.399-4.697-6.769-9.07l2.589-17.755c-90.57 80.031-198.513 142.209-321.16 184.924-.871.302-1.76.439-2.631.439zm47.45 127.759h-34.167v-80.248h34.167zm8.002-96.246h-50.171c-4.42 0-8.002 3.582-8.002 8.002v96.246c0 4.42 3.582 8.002 8.002 8.002h50.171c4.42 0 7.997-3.582 7.997-8.002v-96.246c0-4.42-3.578-8.002-7.997-8.002zm85.147 96.246v-130.668h-34.158v130.668zm8.002-146.671h-50.162c-4.42 0-7.997 3.582-7.997 8.002v146.671c0 4.42 3.577 8.002 7.997 8.002h50.161c4.42 0 7.997-3.582 7.997-8.002v-146.671c.001-4.42-3.576-8.002-7.996-8.002zm85.157 146.671v-183.324h-34.167v183.324zm8.001-199.327h-50.17c-4.42 0-7.997 3.582-7.997 8.002v199.327c0 4.42 3.577 8.002 7.997 8.002h50.171c4.42 0 8.002-3.582 8.002-8.002v-199.327c-.001-4.42-3.583-8.002-8.003-8.002z" fill="#57a4ff"/></g></svg>