<svg id="Layer_1" enable-background="new 0 0 500 500" viewBox="0 0 500 500" xmlns="http://www.w3.org/2000/svg" xmlns:xlink="http://www.w3.org/1999/xlink"><linearGradient id="SVGID_1_" gradientUnits="userSpaceOnUse" x1="104.36" x2="395.673" y1="458.123" y2="166.81"><stop offset="0" stop-color="#0556c0"/><stop offset=".1442" stop-color="#065fc3"/><stop offset=".3795" stop-color="#0977cc"/><stop offset=".6764" stop-color="#0e9fdb"/><stop offset="1" stop-color="#15d2ee"/></linearGradient><path clip-rule="evenodd" d="m437.657 395.153c0 3.89-3.179 7.069-7.058 7.069h-80.332c-3.933 0-7.058-3.179-7.058-7.069v-10.7c0-26.039 21.174-47.235 47.197-47.235 26.077 0 47.251 21.196 47.251 47.235zm-181.245 2.731c11.314 2.327 20.42 10.684 23.868 21.551 18.049-3.75 34.967-10.792 50.43-20.969-.162-1.083-.269-2.187-.269-3.313v-10.7c0-17.359 7.381-33.022 19.234-43.986l-77.53-44.751c-4.095 4.509-9.59 7.758-15.732 9.105v93.063zm-6.412 50.01c-10.452 0-18.911-8.496-18.911-18.938 0-10.447 8.459-18.949 18.911-18.949 10.453 0 18.965 8.502 18.965 18.949 0 10.441-8.513 18.938-18.965 18.938zm-30.225-28.459c3.394-10.867 12.554-19.224 23.868-21.551v-93.064c-6.196-1.347-11.638-4.596-15.786-9.105l-77.53 44.751c11.853 10.964 19.288 26.626 19.288 43.986v10.7c0 1.126-.108 2.231-.269 3.313 15.462 10.179 32.379 17.22 50.429 20.97zm-62.93-24.282c0 3.89-3.179 7.069-7.058 7.069h-80.386c-3.879 0-7.058-3.179-7.058-7.069v-10.7c0-26.039 21.228-47.235 47.251-47.235 26.077 0 47.251 21.196 47.251 47.235zm-66.216-89.643c0-10.447 8.513-18.938 18.965-18.938s18.965 8.491 18.965 18.938c0 10.441-8.513 18.938-18.965 18.938s-18.965-8.496-18.965-18.938zm19.665-75.709c2.209.485 4.472.754 6.842.754 9.429 0 17.887-4.127 23.706-10.663l80.655 46.561c-.916 2.872-1.455 5.927-1.455 9.105 0 3.173.539 6.228 1.455 9.095l-82.433 47.574c-2.478-1.406-5.011-2.629-7.704-3.674 6.142-5.792 9.967-13.971 9.967-23.044 0-17.483-14.224-31.707-31.734-31.707-2.263 0-4.472.242-6.573.69.109-15.284 2.533-30.262 7.274-44.691zm6.843-49.896c10.452 0 18.965 8.502 18.965 18.938 0 10.452-8.513 18.949-18.965 18.949s-18.911-8.497-18.911-18.949c0-10.437 8.459-18.938 18.911-18.938zm73.328-38.787c-18.965 8.41-35.99 20.775-49.945 36.341 5.172 5.646 8.351 13.152 8.351 21.384 0 3.496-.593 6.859-1.616 10l80.601 46.561c4.149-4.52 9.59-7.764 15.786-9.105v-65.494h-33.943c-10.991 0-19.881-8.917-19.881-19.881v-10.732c0-3.083.216-6.111.647-9.074zm12.122 9.073c0-26.158 21.282-47.445 47.413-47.445 26.185 0 47.467 21.287 47.467 47.445v10.732c0 3.922-3.179 7.117-7.112 7.117h-80.655c-3.933 0-7.112-3.195-7.112-7.117v-10.732zm28.502-79.152c0-10.442 8.459-18.938 18.911-18.938 10.453 0 18.965 8.496 18.965 18.938 0 10.447-8.513 18.938-18.965 18.938s-18.911-8.491-18.911-18.938zm18.911 221.702c-9.483 0-17.187-7.71-17.187-17.182 0-9.483 7.704-17.198 17.187-17.198s17.187 7.715 17.187 17.198c0 9.472-7.704 17.182-17.187 17.182zm109.48-115.282c-13.955-15.565-30.98-27.93-49.945-36.341.431 2.963.7 5.991.7 9.073v10.732c0 10.964-8.944 19.881-19.881 19.881h-33.943v65.494c6.142 1.341 11.638 4.585 15.732 9.105l80.655-46.561c-1.077-3.141-1.616-6.503-1.616-10 .001-8.232 3.126-15.737 8.298-21.383zm42.348 21.384c0 10.452-8.513 18.949-18.965 18.949s-18.911-8.497-18.911-18.949c0-10.436 8.459-18.938 18.911-18.938 10.453 0 18.965 8.501 18.965 18.938zm-4.795 75.65c-2.155-.447-4.364-.69-6.627-.69-17.456 0-31.68 14.224-31.68 31.707 0 9.073 3.825 17.252 9.968 23.044-2.694 1.045-5.28 2.268-7.758 3.674l-82.38-47.563c.916-2.877 1.401-5.932 1.401-9.105 0-3.179-.485-6.234-1.401-9.105l80.655-46.561c5.765 6.535 14.278 10.663 23.652 10.663 2.371 0 4.688-.269 6.897-.754 4.741 14.427 7.165 29.405 7.273 44.69zm-25.538 31.017c0 10.441 8.513 18.938 18.911 18.938 10.452 0 18.965-8.497 18.965-18.938 0-10.447-8.513-18.938-18.965-18.938-10.398 0-18.911 8.492-18.911 18.938zm40.678 23.044c6.142-5.792 9.967-13.971 9.967-23.044 0-10.231-4.903-19.337-12.446-25.134.593-19.154-2.155-37.892-8.243-55.855 7.974-5.77 13.146-15.124 13.146-25.678 0-17.483-14.224-31.707-31.734-31.707-4.633 0-8.998 1.008-12.984 2.791-17.672-20.042-39.977-35.301-64.977-44.444-6.465-14.331-18.426-25.683-33.135-31.411 6.142-5.786 9.967-13.965 9.967-23.033 0-17.483-14.224-31.702-31.734-31.702-17.456 0-31.68 14.218-31.68 31.702 0 9.068 3.825 17.246 9.914 23.033-14.709 5.727-26.616 17.079-33.081 31.411-24.999 9.143-47.359 24.402-65.031 44.444-3.933-1.783-8.351-2.791-12.985-2.791-17.456 0-31.68 14.224-31.68 31.707 0 10.555 5.172 19.908 13.092 25.678-6.034 17.963-8.836 36.702-8.243 55.845-7.543 5.808-12.392 14.913-12.392 25.145 0 9.073 3.825 17.252 9.914 23.044-22.359 8.728-38.254 30.484-38.254 55.898v10.7c0 10.932 8.944 19.833 19.827 19.833h80.386c5.172 0 9.914-2.004 13.416-5.275 16.81 10.867 35.721 18.561 55.279 22.494 1.616 15.959 15.14 28.459 31.519 28.459s29.902-12.5 31.573-28.459c19.558-3.933 38.415-11.627 55.225-22.494 3.556 3.271 8.297 5.275 13.469 5.275h80.332c10.937 0 19.827-8.901 19.827-19.833v-10.7c-.001-25.415-15.895-47.171-38.254-55.899z" fill="url(#SVGID_1_)" fill-rule="evenodd"/></svg>