<svg id="Layer_1" enable-background="new 0 0 64 64" height="64" viewBox="0 0 64 64" width="64" xmlns="http://www.w3.org/2000/svg"><g><g><path d="m1 1h33v33h-33z" fill="#0a5b7f"/></g><g><path d="m34 1v33h-33" fill="#074568"/></g><g><path d="m49 44c0 2.8-2.3 5-5 5h-22.7c-2.8 0-5.3-2.3-5.3-5v-22.7c0-2.8 2.5-5.3 5.3-5.3h22.7c2.8 0 5 2.5 5 5.3z" fill="#2e9bcc"/></g><g><path d="m34 34v-18h-12.7c-2.8 0-5.3 2.5-5.3 5.3v12.7z" fill="#2690c6"/></g><g><path d="m16 34h18v-18" fill="#1474af"/></g><g><circle cx="46.6" cy="46.6" fill="#ef3388" r="16.3"/></g><g><path d="m46.6 30.3c-9 0-16.3 7.3-16.3 16.4 0 .8.1 1.4.2 2.4h13.5c2.8 0 5-2.3 5-5v-13.6c-1-.1-1.6-.2-2.4-.2z" fill="#ce6ed6"/></g><g><path d="m30.3 46.6c0 .8.1 1.4.2 2.4h13.5c2.8 0 5-2.3 5-5v-13.5c-1-.1-1.6-.2-2.4-.2" fill="#b751bc"/></g></g></svg>